PathFileType	4	(X/Y/Z)	KinectSkeleton.trc																																																	
DataRate	CameraRate	NumFrames	NumMarkers	Units	OrigDataRate	OrigDataStartFrame	OrigNumFrames																																													
60	60	22	17	mm	60	1	300																																													
Frame#	Time	Neck			ShoulderMid			R.Shoulder			L.Shoulder			R.Elbow			L.Elbow			R.Wrist			L.Wrist			HipCenter			R.Hip			L.Hip			R.Knee			L.Knee			R.Ankle			L.Ankle			R.Foot			L.Foot		
		X1	Y1	Z1	X2	Y2	Z2	X3	Y3	Z3	X4	Y4	Z4	X5	Y5	Z5	X6	Y6	Z6	X7	Y7	Z7	X8	Y8	Z8	X9	Y9	Z9	X10	Y10	Z10	X11	Y11	Z11	X12	Y12	Z12	X13	Y13	Z13	X14	Y14	Z14	X15	Y15	Z15	X16	Y16	Z16	X17	Y17	Z17
																																																				
1	0.077	-1898.736	1081.125	317.656	-1898.736	1081.125	317.656	-1896.49	1002.063	478.471	-1883.553	1002.151	145.731	-1958.216	733.067	552.675	-1941.748	735.631	80.532	-1867.511	514.353	580.372	-1849.832	519.064	72.262	-1893.144	535.642	328.772	-1904.14	537.946	411.467	-1880.95	533.088	237.066	-1940.987	136.105	455.258	-1926.649	131.904	191.572	-2031.932	-245.042	476.347	-2016.219	-243.721	150.561	-1913.995	-363.566	527.81	-1869.876	-364.64	139.693
2	0.152	-1899.406	1082.737	313.995	-1899.406	1082.737	313.995	-1892.565	1002.683	476.413	-1887.196	1012.155	136.592	-1951.96	730.478	555.112	-1946.11	743.186	66.462	-1854.401	510.876	579.149	-1854.109	523.425	55.87	-1893.463	530.573	329.991	-1901.899	535.039	413.991	-1884.107	525.62	236.837	-1944.459	128.236	456.073	-1934.659	119.746	190.501	-2033.729	-258.465	478.862	-2013.979	-263.186	147.787	-1904.432	-370.117	526.02	-1852.228	-366.045	128.814
3	0.231	-1898.192	1081.862	310.943	-1898.192	1081.862	310.943	-1894.063	998.394	472.983	-1884.24	1014.232	131.952	-1944.702	722.691	550.305	-1951.777	745.136	65.093	-1840.552	505.822	581.204	-1865.302	522.437	47.774	-1894.008	527.555	329.813	-1904.402	533.198	413.898	-1882.481	521.297	236.565	-1944.764	124.384	456.353	-1937.25	114.12	190.356	-2034.629	-264.042	477.969	-2019.236	-269.978	147.187	-1902.325	-372.909	526.221	-1854.446	-369.62	128.587
4	0.319	-1897.42	1081.766	309.362	-1897.42	1081.766	309.362	-1891.519	998.571	471.508	-1884.117	1013.755	130.473	-1936.956	722.028	549.109	-1951.673	744.533	64.094	-1826.59	507.946	577.873	-1864.975	521.91	46.775	-1893.403	527.458	329.192	-1903.738	533.21	413.281	-1881.941	521.079	235.941	-1944.003	124.412	456.141	-1936.485	113.802	190.193	-2033.92	-263.977	478.518	-2017.598	-270.536	147.368	-1901.606	-373.606	525.014	-1851.729	-368.505	129.393
5	0.381	-1890.267	1077.889	305.436	-1890.267	1077.889	305.436	-1884.01	999.643	468.909	-1882.605	1012.108	126.621	-1923.127	722.529	544.693	-1946.821	743.362	58.613	-1813.386	508.339	568.637	-1853.217	524.228	42.524	-1889.657	525.196	326.924	-1899.608	530.822	410.816	-1878.621	518.958	233.891	-1942.059	123.595	454.825	-1935.989	113.157	189.467	-2033.033	-263.274	478.31	-2017.424	-270.036	147.704	-1905.562	-377.16	526.085	-1852.762	-368.706	128.618
6	0.452	-1891.48	1079.913	299.956	-1891.48	1079.913	299.956	-1879.41	1006.312	465.089	-1883.321	1011.723	121.528	-1922.852	728.366	537.584	-1934.677	738.207	59.535	-1808.731	515.62	558.558	-1831.99	522.51	45.57	-1888.602	526.187	322.653	-1895.849	531.665	406.999	-1880.565	520.112	229.117	-1939.327	124.014	453.593	-1935.591	113.128	185.023	-2032.297	-263.033	479.483	-2014.399	-271.552	144.598	-1902.593	-375.761	525.248	-1847.314	-366.315	123.087
7	0.513	-1889.007	1080.759	294.837	-1889.007	1080.759	294.837	-1876.585	1010.493	461.139	-1881.157	1005.576	117.97	-1914.691	731.03	532.183	-1922.885	727.927	66.431	-1797.746	519.217	550.177	-1809.702	516.804	62.041	-1886.382	526.243	317.883	-1894.841	531.571	402.227	-1877.001	520.335	224.348	-1942.132	123.879	449.122	-1934.129	113.066	180.932	-2028.898	-264.695	480.466	-2016.35	-271.599	142.591	-1897.296	-373.713	530.435	-1849.94	-368.305	122.457
8	0.575	-1889.103	1081.09	292.469	-1889.103	1081.09	292.469	-1872.875	1012.793	459.253	-1883.166	1006.389	115.666	-1911.866	733.926	532.344	-1918.91	727.025	68.823	-1795.547	521.372	545.631	-1800.906	518.468	67.383	-1884.653	526.556	317.622	-1890.912	531.796	402.18	-1877.712	520.745	223.852	-1939.53	124.184	449.065	-1933.217	113.078	181.361	-2029.241	-263.8	480.358	-2014.048	-272.036	143.854	-1897.681	-372.914	530.342	-1847.046	-367.459	122.216
9	0.654	-1888.098	1082.163	291.201	-1888.098	1082.163	291.201	-1871.927	1011.676	457.44	-1879.037	1006.355	114.443	-1910.092	732.488	531.104	-1914.145	725.953	71.425	-1788.255	522.661	543.488	-1786.529	522.884	77.376	-1884.874	526.866	313.951	-1890.996	531.82	398.636	-1878.085	521.372	220.039	-1940.782	124.08	447.441	-1933.777	113.076	179.129	-2031.409	-264.11	479.519	-2015.24	-272.548	143.353	-1899.244	-372.393	530.454	-1846.91	-366.388	123.092
10	0.71	-1884.433	1081.214	290.142	-1884.433	1081.214	290.142	-1868.562	1010.784	456.63	-1872.832	1002.709	114.301	-1907.856	731.255	529.188	-1904.826	720.8	77.926	-1786.631	520.828	540.602	-1780.195	515.939	89.603	-1883.775	525.503	314.036	-1889.869	530.537	398.776	-1877.016	519.919	220.061	-1939.898	122.546	447.634	-1934.287	111.532	179.368	-2030.359	-265.933	480.092	-2017.258	-274.082	143.957	-1896.626	-372.728	530.5	-1849.517	-369.015	122.66
11	0.787	-1884.468	1081.19	290.018	-1884.468	1081.19	290.018	-1868.54	1010.805	456.526	-1872.829	1002.592	114.209	-1907.692	731.26	529.136	-1904.606	720.623	78.037	-1786.327	520.903	540.535	-1779.833	515.849	89.869	-1883.724	525.466	314.014	-1889.821	530.509	398.757	-1876.963	519.874	220.038	-1939.815	122.504	447.646	-1934.056	111.447	179.363	-2030.242	-265.994	480.135	-2016.722	-274.242	143.92	-1896.533	-372.823	530.555	-1848.817	-368.95	122.859
12	0.849	-1884.021	1083.878	289.191	-1884.021	1083.878	289.191	-1868.281	1013.643	456.48	-1874.643	1001.934	113.758	-1905.872	732.715	527.946	-1901.923	718.92	75.589	-1785.687	520.899	539.799	-1774.227	515.077	86.358	-1879.835	526.474	312.748	-1887.016	531.085	397.677	-1871.872	521.361	218.565	-1937.848	122.01	446.888	-1931.356	111.97	178.815	-2031.525	-266.867	479.883	-2015.619	-274.63	144.268	-1896.995	-373.357	530.66	-1846.505	-368.322	123.174
13	0.929	-1881.167	1081.601	290.055	-1881.167	1081.601	290.055	-1864.45	1013.769	457.585	-1871.353	1001.601	114.745	-1904.829	733.695	528.238	-1909.911	721.067	72.932	-1786.296	521.594	540.533	-1782.104	517.853	82.276	-1880.285	525.405	314.985	-1886.84	529.93	399.779	-1873.015	520.386	220.95	-1936.904	121.612	448.318	-1931.546	111.951	179.576	-2032.203	-266.095	479.607	-2014.444	-273.888	143.361	-1897.885	-372.604	529.505	-1845.051	-366.434	123.439
14	0.989	-1880.782	1081.07	289.725	-1880.782	1081.07	289.725	-1864.423	1013.408	457.271	-1869.662	1001.644	114.334	-1905.006	733.717	528.948	-1915.197	722.955	68.039	-1785.504	522.19	540.256	-1793.186	516.243	76.158	-1876.75	525.096	314.893	-1885.179	529.752	399.489	-1867.402	519.933	221.08	-1938.014	121.906	447.985	-1929.829	112.184	179.908	-2031.867	-266.005	479.543	-2017.292	-272.539	143.877	-1897.202	-371.708	530.019	-1850.179	-368.787	122.849
15	1.065	-1878.092	1082.475	290.104	-1878.092	1082.475	290.104	-1862.859	1016.972	458.703	-1869.848	1000.282	114.983	-1906.365	737.283	531.1	-1907.375	720.132	66.739	-1785.304	526.022	541.454	-1805.635	502.097	61.418	-1875.539	525.392	314.687	-1884.038	529.914	399.459	-1866.113	520.377	220.679	-1937.556	121.221	447.308	-1930.109	112.013	179.461	-2032.234	-267.261	479.771	-2018.485	-273.339	143.46	-1897.647	-373.341	530.952	-1847.576	-364.44	126.805
16	1.13	-1877.607	1081.948	289.691	-1877.607	1081.948	289.691	-1862.436	1017.26	458.438	-1869.277	1000.6	114.58	-1906.564	737.926	530.8	-1912.092	721.602	65.561	-1787.678	525.698	541.552	-1808.834	504.563	58.537	-1874.885	525.418	314.645	-1883.289	529.857	399.355	-1865.564	520.495	220.704	-1934.354	121.271	447.649	-1928.187	112.298	179.385	-2030.884	-266.533	478.393	-2016.746	-272.632	143.142	-1898.247	-373.352	532.499	-1848.21	-367.669	126.282
17	1.198	-1875.667	1082.386	290.567	-1875.667	1082.386	290.567	-1860.532	1016.79	458.907	-1866.296	1004.063	114.52	-1905.144	737.46	530.878	-1917.799	727.363	61.175	-1787.608	524.5	541.505	-1818.604	508.389	56.951	-1873.592	525.786	314.639	-1882.328	530.244	399.307	-1863.904	520.842	220.746	-1935.026	121.938	447.903	-1927.97	112.909	179.412	-2030.124	-266.112	479.502	-2015.979	-272.092	142.975	-1897.406	-373.347	532.523	-1846.467	-365.309	125.952
18	1.249	-1875.363	1082.162	291.117	-1875.363	1082.162	291.117	-1860.404	1016.294	459.323	-1866.686	1004.381	114.868	-1905.31	737.012	531.032	-1920.588	728.326	60.897	-1787.924	524.027	541.586	-1822.376	508.987	55.786	-1873.392	525.669	314.758	-1882.114	530.127	399.408	-1863.72	520.726	220.884	-1935.234	121.95	447.84	-1927.205	112.783	179.672	-2029.922	-266.109	479.433	-2015.373	-272.099	143.326	-1895.962	-371.945	532.005	-1847.178	-367.424	125.424
19	1.309	-1875.476	1083.978	289.732	-1875.476	1083.978	289.732	-1859.912	1017.933	458.272	-1867.009	1004.198	113.816	-1905.96	738.461	530.432	-1922.649	727.585	62.059	-1787.865	525.413	540.866	-1824.172	507.889	60.238	-1873.018	526.668	314.947	-1880.571	531.341	399.836	-1864.642	521.486	220.808	-1933.648	122.426	447.797	-1927.241	112.725	179.613	-2029.37	-266.052	479.331	-2013.564	-273.235	143.288	-1895.65	-372.574	532.107	-1844.792	-368.397	126.598
20	1.385	-1875.516	1084.156	289.884	-1875.516	1084.156	289.884	-1859.504	1017.363	458.219	-1864.484	1003.7	114.233	-1903.745	737.551	530.6	-1921.538	727.505	61.251	-1786.724	523.808	540.883	-1824.25	507.182	60.449	-1872.789	526.602	315.014	-1881.13	531.295	399.858	-1863.539	521.398	220.925	-1932.546	122.055	448.105	-1927.729	112.739	179.72	-2030.083	-266.152	479.18	-2014.275	-273.343	143.721	-1896.328	-372.627	532.17	-1845.389	-368.289	126.185
21	1.447	-1875.463	1084.368	289.939	-1875.463	1084.368	289.939	-1859.524	1017.363	458.288	-1863.141	1003.579	114.403	-1903.653	737.25	529.986	-1917.504	726.578	62.258	-1787.02	523.19	540.095	-1818.057	507.13	63.141	-1872.537	526.631	315.007	-1880.909	531.317	399.878	-1863.254	521.436	220.888	-1933.056	122.025	448.15	-1927.335	112.638	179.418	-2031.962	-266.022	478.703	-2014.256	-273.477	143.154	-1898.338	-372.099	533.019	-1844.855	-367.815	126.574
22	1.525	-1874.156	1083.436	289.996	-1874.156	1083.436	289.996	-1859.29	1016.225	458.378	-1863.836	1002.738	114.396	-1899.633	735.347	528.809	-1912.048	724.275	64.701	-1781.818	522.125	540.396	-1811.296	505.54	62.529	-1871.77	525.9	314.871	-1880.325	530.508	399.693	-1862.282	520.79	220.807	-1935.52	121.758	447.695	-1926.575	112.178	179.553	-2030.475	-266.995	479.587	-2014.382	-273.551	143.112	-1895.686	-372.295	532.269	-1844.393	-366.563	126.018
